<?xml version="1.0" encoding="UTF-8" standalone="no"?>
<!DOCTYPE svg PUBLIC "-//W3C//DTD SVG 1.1//EN" "http://www.w3.org/Graphics/SVG/1.1/DTD/svg11.dtd">
<svg width="100%" height="100%" viewBox="0 0 512 512" version="1.1" xmlns="http://www.w3.org/2000/svg" xmlns:xlink="http://www.w3.org/1999/xlink" xml:space="preserve" xmlns:serif="http://www.serif.com/" style="fill-rule:evenodd;clip-rule:evenodd;stroke-linejoin:round;stroke-miterlimit:2;">
    <g transform="matrix(1,0,0,1,-720,0)">
        <g id="Artboard2" transform="matrix(1,0,0,1,-0.333333,0)">
            <rect x="720.333" y="0" width="512" height="512" style="fill:none;"/>
            <g transform="matrix(1.5085,0,0,1.5085,-515.899,-156.048)">
                <g transform="matrix(1,0,0,0.630814,78.1521,99.596)">
                    <path d="M911.067,164.38L980.469,233.782L980.469,345.256L911.067,345.256L911.067,164.38Z" style="fill:rgb(17,177,255);"/>
                </g>
                <g transform="matrix(1,0,0,-0.630814,78.1521,535.18)">
                    <path d="M911.067,164.38L980.469,233.782L980.469,345.256L911.067,345.256L911.067,164.38Z" style="fill:rgb(17,177,255);"/>
                </g>
                <g transform="matrix(-1,0,0,0.630814,1900.29,99.596)">
                    <path d="M911.067,164.38L980.469,233.782L980.469,345.256L911.067,345.256L911.067,164.38Z" style="fill:rgb(255,171,185);"/>
                </g>
                <g transform="matrix(-1,0,0,-0.630814,1900.29,535.18)">
                    <path d="M911.067,164.38L980.469,233.782L980.469,345.256L911.067,345.256L911.067,164.38Z" style="fill:rgb(255,171,185);"/>
                </g>
                <g transform="matrix(1,0,0,1,0.333333,0)">
                    <path d="M988.886,203.289L1135.93,203.289" style="fill:none;"/>
                </g>
                <g transform="matrix(1,0,0,1,0.333333,0)">
                    <path d="M1058.29,247.069L988.886,203.289L1125.5,203.289L1125.5,247.069L1058.29,247.069Z" style="fill:rgb(85,52,232);"/>
                </g>
                <g transform="matrix(-1,0,0,1,2183.02,0)">
                    <path d="M1058.29,247.069L1038.94,203.289L1125.5,203.289L1125.5,247.069L1058.29,247.069Z" style="fill:rgb(85,52,232);"/>
                </g>
                <g transform="matrix(-1,0,0,1,1978.1,0)">
                    <path d="M1058.29,247.069L988.886,203.289L1125.5,203.289L1125.5,247.069L1058.29,247.069Z" style="fill:rgb(182,255,254);"/>
                </g>
                <g transform="matrix(1,0,0,1,-204.583,0)">
                    <path d="M1058.29,247.069L1038.94,203.289L1125.5,203.289L1125.5,247.069L1058.29,247.069Z" style="fill:rgb(182,255,254);"/>
                </g>
                <g transform="matrix(0.755723,9.51037e-17,-3.40253e-17,-2.02086,87.0349,614.107)">
                    <path d="M1016.75,247.069L988.886,203.289L1274.82,203.289L1274.82,247.069L1016.75,247.069Z" style="fill:rgb(255,137,0);"/>
                </g>
                <g transform="matrix(-0.755723,-9.51037e-17,-3.40253e-17,-2.02086,1891.4,614.107)">
                    <path d="M1007.35,247.069L988.886,203.289L1274.82,203.289L1274.82,247.069L1007.35,247.069Z" style="fill:rgb(255,137,0);"/>
                </g>
            </g>
        </g>
    </g>
</svg>
