<?xml version="1.0" encoding="UTF-8" standalone="no"?>
<!DOCTYPE svg PUBLIC "-//W3C//DTD SVG 1.1//EN" "http://www.w3.org/Graphics/SVG/1.1/DTD/svg11.dtd">
<svg width="100%" height="100%" viewBox="0 0 512 512" version="1.1" xmlns="http://www.w3.org/2000/svg" xmlns:xlink="http://www.w3.org/1999/xlink" xml:space="preserve" xmlns:serif="http://www.serif.com/" style="fill-rule:evenodd;clip-rule:evenodd;stroke-linejoin:round;stroke-miterlimit:2;">
    <g transform="matrix(1,0,0,1,-720,0)">
        <g id="Artboard2" transform="matrix(1,0,0,1,-0.333333,0)">
            <rect x="720.333" y="0" width="512" height="512" style="fill:none;"/>
            <g transform="matrix(1.5085,0,0,1.5085,-515.899,-148.048)">
                <g transform="matrix(0.662912,0,0,0.662912,342.217,103.446)">
                    <path d="M1080.69,428.807L976,494.849L976,150.613L1080.69,216.655L1080.69,428.807Z" style="fill:rgb(17,177,255);"/>
                </g>
                <g transform="matrix(0.662912,0,0,0.662912,342.217,103.446)">
                    <path d="M976,494.849L871.307,428.807L871.307,216.655L976,150.613L976,494.849Z" style="fill:rgb(255,171,185);"/>
                </g>
                <g transform="matrix(1,0,0,1,0.333333,0)">
                    <path d="M988.886,203.289L1135.93,203.289" style="fill:none;"/>
                </g>
                <g transform="matrix(0.662912,0,0,0.662912,342.217,103.446)">
                    <path d="M1079.04,215.611L1079.04,216.655L1180.42,216.655L1209.61,150.613L976,150.613L1079.04,215.611Z" style="fill:rgb(85,52,232);"/>
                </g>
                <g transform="matrix(0.662912,0,0,0.662912,342.217,103.446)">
                    <path d="M872.961,215.611L872.961,216.655L771.578,216.655L742.394,150.613L976,150.613L872.961,215.611Z" style="fill:rgb(29,255,252);"/>
                </g>
                <g transform="matrix(0.662912,0,0,0.662912,342.217,103.446)">
                    <path d="M774.159,17.151L1188.56,17.151L1209.61,150.613L742.394,150.613L774.159,17.151Z" style="fill:rgb(255,137,0);"/>
                </g>
            </g>
        </g>
    </g>
</svg>
