<svg width="601" height="600" viewBox="0 0 601 600" fill="none" xmlns="http://www.w3.org/2000/svg">
<path d="M136.551 579.815L98.2587 546.675C94.548 542.935 93.5728 540.62 92.7927 538.125C92.2076 536.7 93.5728 534.56 95.9183 533.845L158.235 481.465C162.141 478.08 165.266 474.695 168.782 471.485C171.908 468.815 175.618 465.605 180.699 461.865L207.854 439.235C210.39 437.275 211.955 435.14 214.106 434.605C215.081 433.355 216.446 433.71 218.207 433.18L234.225 437.1C235.59 437.275 236.765 438.345 237.155 439.235C237.74 440.485 237.74 442.445 237.155 445.115L228.363 482.53C227.973 483.96 228.168 485.385 228.168 485.385C228.753 486.095 229.339 486.45 230.124 486.81L231.684 486.63C232.269 486.81 233.054 486.095 233.834 485.385C234.81 484.85 235.59 483.96 236.375 482.175L256.494 443.155C257.469 440.485 258.449 439.235 260.009 437.63C261.38 436.92 262.94 435.495 264.31 434.78L283.064 429.26C284.429 428.725 285.799 429.08 286.58 429.79C287.555 430.685 288.53 432.465 288.14 434.605L296.151 460.795C297.517 465.25 298.302 469.17 297.907 472.91C298.887 476.655 298.887 480.395 298.887 485.385V567.345C299.082 570.73 297.907 572.865 296.541 574.825C295.371 576.255 291.85 579.28 287.555 580.705L237.155 599.235C233.249 600.485 231.294 600.13 229.539 598.705C228.753 597.635 227.973 596.21 228.753 592.825L249.462 508.725L227.778 539.37C225.433 542.4 223.483 544.36 220.942 545.07C217.426 546.495 215.666 546.855 212.15 546.855L202.383 546.14C198.868 545.43 196.912 544.895 194.567 542.755C193.787 541.865 192.617 540.085 192.617 536.52L193.592 506.94L150.224 579.995C149.248 582.31 147.488 583.38 145.733 583.2C143.387 583.735 140.457 582.49 136.551 579.815ZM60.5566 425.16L89.277 423.915L82.4357 406.095C80.4853 401.64 77.7497 398.79 76.5795 397.185C73.6489 395.405 70.9135 394.69 67.9829 393.625L60.1665 392.555C57.626 392.91 55.6755 394.335 53.7202 394.87C51.7698 395.94 50.9847 398.97 52.55 404.315L60.5566 425.16ZM179.329 400.035L190.856 415.005C191.636 416.25 192.422 417.5 192.026 419.1C190.856 420.35 189.101 422.31 186.755 424.445L68.178 496.25C64.8574 496.25 63.292 496.25 61.1466 495.715C58.6062 493.58 55.8707 490.195 54.3054 486.63L7.03137 374.915C1.56533 351.215 2.93058 336.07 8.40162 330.37C15.823 324.135 24.0296 324.67 35.7468 329.48L46.1037 334.29C53.1351 336.785 59.1912 339.99 63.8771 343.91C68.178 347.475 71.6936 351.575 73.649 356.56C74.4292 349.08 77.7497 343.2 82.8307 340.35C89.472 338.03 97.2835 337.855 107.44 340.525L156.475 346.23C159.795 346.23 162.336 346.405 162.921 347.12C164.681 347.475 164.681 348.9 165.462 350.505L167.807 370.46C167.612 372.065 167.417 373.13 167.022 374.56C165.852 375.27 163.116 377.05 159.99 377.945L125.804 382.93C122.483 383.645 120.138 384.36 119.163 385.25C117.602 386.675 116.817 388.455 117.797 390.595L127.564 416.785L169.562 399.86C171.908 399.145 174.448 398.075 176.204 397.9C177.574 397.72 178.549 398.61 179.329 400.035ZM167.022 328.23C166.437 329.835 165.266 331.44 164.486 332.15C162.336 333.22 159.99 332.685 157.255 332.51L129.91 328.765C126.589 327.875 124.439 326.63 123.463 325.74C122.678 324.49 121.898 323.065 122.678 320.75L126.389 304L50.0095 262.13L43.7583 283.51C43.3682 286.715 42.7832 287.785 41.803 289.745C38.8724 289.39 38.4823 289.39 35.1617 287.61L6.83626 271.57C3.9057 269.08 1.76035 266.94 0.390089 264.265C1.46655e-05 262.305 0 259.635 0 255.36L50.9847 163.598C53.9152 162.172 55.8706 161.459 58.216 161.459C60.9515 162.529 62.5119 163.776 65.2474 166.27L87.3217 189.255C89.4721 192.818 91.2273 194.778 91.2273 196.56C91.4223 198.52 90.0571 200.302 87.7116 201.549L74.0391 217.941L143.387 268.365L153.349 254.11C154.129 252.33 156.085 251.615 156.67 251.44C159.015 251.44 161.361 251.795 163.896 253.04L185.775 265.87C188.316 267.475 189.101 268.185 190.466 269.79C190.466 270.86 190.856 272.105 190.076 273.89L167.022 328.23ZM273.297 193.353L230.709 227.206C220.942 236.293 211.76 241.817 201.798 242.529C191.636 243.955 180.504 238.966 169.172 231.304L116.817 182.128C104.51 169.121 100.409 157.183 104.905 143.82C108.421 132.06 123.068 121.192 145.343 109.967L220.747 68.9865C224.263 67.205 227.388 65.7795 229.144 65.7795C231.684 65.601 232.859 66.314 233.834 69.6995L239.306 91.4365C240.671 93.931 240.281 96.96 238.715 98.3855C237.74 100.88 234.81 102.483 232.269 104.978L178.939 138.653C173.863 141.86 170.542 144.176 168.782 147.562C167.222 150.413 168.002 152.729 169.757 156.471L199.453 194.6C201.403 196.56 203.749 198.52 205.704 197.807C208.245 199.233 210.585 197.629 213.516 196.026L229.929 182.484L215.861 157.183C214.301 154.511 214.301 152.729 214.301 150.591C215.861 148.631 217.426 146.493 220.747 145.067L256.494 120.479C258.644 119.766 261.575 118.519 262.355 119.766C264.7 119.588 265.09 119.945 265.481 122.617L277.008 183.019C277.593 185.157 277.788 187.829 276.423 189.077C276.027 190.146 274.857 191.749 273.297 193.353ZM323.106 167.696L301.032 177.495C299.472 178.208 298.102 178.386 296.931 177.852C296.151 176.248 295.956 175.001 295.761 171.259L292.636 35.133C292.636 32.4605 293.221 30.679 294.976 27.65C296.541 26.4025 300.057 24.2645 304.158 22.1265L353.972 1.81447C357.488 0.92347 360.419 1.10147 361.984 1.63597C363.739 2.88347 364.134 4.30897 363.544 6.62497L352.217 56.6925L393.825 53.6635L413.749 5.73396C414.534 2.34896 416.679 0.745473 418.83 0.566973C420.98 -0.145527 424.106 -0.502036 427.816 1.45796L471.38 22.4825C474.505 24.621 477.241 27.2935 477.826 29.6095C478.411 31.926 477.826 33.5295 476.065 36.024L384.253 157.896C382.888 159.856 380.932 162.172 379.172 163.419C378.197 164.488 376.832 164.132 375.071 163.776L355.538 161.816C353.972 161.994 353.387 160.925 352.997 160.39C352.412 159.143 353.387 156.471 354.362 152.907L374.681 101.592L341.47 105.512L330.338 156.649C329.358 160.569 328.577 163.241 327.407 163.954C326.432 165.914 325.062 167.339 323.106 167.696ZM420.785 202.796L410.428 186.582C409.258 185.335 409.453 183.731 409.453 182.662C410.823 180.702 411.798 179.099 414.144 177.317L508.107 118.697L481.536 85.557C478.996 82.706 477.436 80.39 477.046 78.43C477.436 76.292 477.631 74.688 479.976 73.263L499.12 57.7615C501.27 56.158 503.416 55.9795 505.761 56.158C508.107 56.8705 510.647 60.256 513.183 62.9285L594.058 234.333C595.428 238.788 595.038 240.748 594.058 241.639C592.888 243.777 591.127 244.133 588.197 243.064L561.437 233.977C557.331 233.086 555.381 231.661 553.425 229.523C552.06 227.741 550.885 225.425 550.3 221.861L538.187 181.059L431.722 202.262C428.596 204.222 425.666 205.291 424.496 204.756C423.716 204.756 422.15 204.222 420.785 202.796ZM447.155 337.855C441.489 334.29 436.218 330.55 431.917 327.165C428.596 323.955 425.081 320.035 423.52 315.045C421.37 310.595 420.785 306.14 421.37 300.26C420.98 294.915 422.15 288.145 425.081 279.945C426.841 271.75 429.377 264.625 432.702 259.455C434.653 254.11 438.168 249.835 441.884 246.093C446.57 242.708 450.866 239.679 456.922 238.075C462.393 236.471 469.034 235.937 475.87 235.759L555.381 253.22C562.607 256.07 568.663 259.635 574.914 264.625C581.946 268.9 586.246 276.56 591.322 285.65C595.623 294.555 598.164 305.07 599.919 318.255C600.699 330.725 599.139 345.16 595.038 361.55C589.372 376.16 582.926 387.385 574.719 393.09C568.078 400.215 560.066 402.71 553.815 404.135C545.809 404.49 539.753 403.955 532.526 400.035C526.075 396.83 519.824 392.555 514.553 387.21L447.155 337.855ZM482.907 277.45C479.191 276.74 477.046 276.56 474.505 277.63C471.965 279.055 470.209 282.62 468.449 288.32C466.889 293.845 467.279 298.475 468.254 300.26C469.619 302.755 471.77 305.07 474.505 305.96L533.696 339.99C537.407 342.485 540.143 342.31 542.293 342.31C545.029 341.595 549.129 338.21 552.45 331.085C554.795 323.065 553.425 315.94 551.67 312.02C550.3 308.99 547.759 305.96 545.224 304.715L482.907 277.45ZM379.762 359.415L395.195 340.885C397.536 339.99 398.906 338.565 399.686 338.21C401.246 338.03 403.982 338.745 406.132 340.17L519.824 436.205C522.169 438.7 523.345 441.015 523.15 442.975C522.949 444.76 520.999 446.895 518.264 448.855L479.391 471.665C476.461 473.09 474.115 473.98 471.38 473.98C468.449 474.335 465.909 473.445 462.783 472.555L420.2 457.945C418.83 457.41 418.049 457.59 416.289 456.875C416.094 457.41 414.924 457.41 414.144 458.12L411.798 459.19C411.018 460.26 410.623 461.51 410.038 461.685C409.648 462.755 409.453 463.825 409.258 465.605L399.491 509.26C398.321 512.645 396.56 514.96 395.975 516.565C393.825 519.235 390.894 520.66 387.964 523.335L335.609 554.695C331.313 557.01 328.577 558.08 326.822 558.255C325.062 557.545 324.087 557.01 323.697 554.335L310.804 423.38C310.409 420.525 310.804 418.745 311.974 416.605C312.559 415.36 313.93 413.755 315.295 411.62L336.979 397.545C339.13 396.83 340.495 396.115 341.86 396.115C342.645 396.115 344.01 397.72 344.4 399.86L371.361 459.55L374.486 431.93C375.266 429.08 375.656 426.94 377.027 424.625C377.807 422.485 379.172 420.885 381.713 418.925L389.334 412.865C390.894 411.26 394.215 409.66 395.585 409.48C398.321 409.3 400.076 409.3 402.617 409.66L427.816 417.5L381.128 368.5C379.367 366.54 377.417 365.115 377.807 363.69C378.197 362.62 378.392 361.015 379.762 359.415Z" fill="#11B1FF"/>
</svg>
