<svg width="90" height="99" viewBox="0 0 90 99" fill="none" xmlns="http://www.w3.org/2000/svg">
<path d="M63.0742 0L89.6758 26.6025V86C89.6758 93.1797 83.8555 99 76.6758 99H13.6758C6.49625 98.9998 0.675781 93.1796 0.675781 86V13C0.675913 5.82053 6.49633 0.000197664 13.6758 0H63.0742ZM32.5264 80.751C30.8695 80.751 29.5264 82.0941 29.5264 83.751C29.5266 85.4076 30.8697 86.751 32.5264 86.751H57.8262C59.4828 86.7509 60.8259 85.4076 60.8262 83.751C60.8262 82.0942 59.483 80.7511 57.8262 80.751H32.5264ZM25.7432 65.25C24.0865 65.2502 22.7432 66.5933 22.7432 68.25C22.7434 69.9065 24.0866 71.2498 25.7432 71.25H64.6084C66.2651 71.25 67.6081 69.9066 67.6084 68.25C67.6084 66.5932 66.2652 65.25 64.6084 65.25H25.7432ZM33.3516 22.6494C31.405 22.6494 29.6981 23.0229 28.2314 23.7695C26.7649 24.4895 25.6186 25.503 24.792 26.8096C23.992 28.1162 23.5918 29.6627 23.5918 31.4492V43.8496C23.5918 45.6095 23.992 47.156 24.792 48.4893C25.6186 49.7958 26.7649 50.8227 28.2314 51.5693C29.6981 52.2893 31.405 52.6494 33.3516 52.6494C35.3249 52.6494 37.0317 52.2893 38.4717 51.5693C39.9383 50.8227 41.0721 49.7959 41.8721 48.4893C42.6986 47.156 43.1113 45.6094 43.1113 43.8496H37.1113C37.1113 44.9962 36.778 45.8893 36.1113 46.5293C35.4713 47.1426 34.5515 47.4492 33.3516 47.4492C32.1517 47.4492 31.2184 47.1426 30.5518 46.5293C29.9119 45.8893 29.5918 44.9962 29.5918 43.8496V31.4492C29.5918 30.276 29.9118 29.3828 30.5518 28.7695C31.2184 28.1562 32.1517 27.8496 33.3516 27.8496C34.5514 27.8496 35.4713 28.1563 36.1113 28.7695C36.7779 29.3828 37.1113 30.276 37.1113 31.4492H43.1113C43.1113 29.6628 42.6986 28.1161 41.8721 26.8096C41.0721 25.5029 39.9383 24.4895 38.4717 23.7695C37.0317 23.0229 35.3249 22.6494 33.3516 22.6494ZM46.1758 23.0498L53.416 52.25H61.0166L68.1758 23.0498H62.1357L58.2158 41.4492C58.0825 42.1159 57.9364 42.943 57.7764 43.9297C57.6164 44.9162 57.4826 45.756 57.376 46.4492C57.2693 45.756 57.1098 44.9161 56.8965 43.9297C56.7098 42.943 56.5493 42.1293 56.416 41.4893L52.376 23.0498H46.1758Z" fill="#D9D9D9"/>
</svg>
